<svg width="1474" height="114" viewBox="0 0 1474 114" fill="none" xmlns="http://www.w3.org/2000/svg">
<path d="M0.835831 13.7198C0.835831 21.0929 6.81287 27.0699 14.1859 27.0699C21.559 27.0699 27.536 21.0929 27.536 13.7198C27.536 6.3468 21.559 0.369766 14.1859 0.369766C6.81287 0.369766 0.835831 6.3468 0.835831 13.7198ZM1446.65 72.2933C1446.65 79.6664 1452.63 85.6434 1460 85.6434C1467.37 85.6434 1473.35 79.6664 1473.35 72.2933C1473.35 64.9203 1467.37 58.9433 1460 58.9433C1452.63 58.9433 1446.65 64.9203 1446.65 72.2933ZM304.55 111.342L303.466 113.598L304.23 113.966L305.06 113.793L304.55 111.342ZM657.493 36.7487L658.031 34.304L657.499 34.1871L656.967 34.3016L657.493 36.7487ZM997.42 91.8178L997.147 94.3061L997.45 94.3393L997.752 94.2988L997.42 91.8178ZM1278.77 13.7198L1279.54 11.338L1278.65 11.0482L1277.78 11.4217L1278.77 13.7198ZM492.286 72.2933L492.796 74.744L492.804 74.7423L492.812 74.7405L492.286 72.2933ZM149.356 36.7487L150.44 34.4927L150.123 34.3403L149.776 34.2812L149.356 36.7487ZM819.196 72.2933L818.659 74.7381L818.79 74.767L818.923 74.7816L819.196 72.2933ZM1143.1 72.2933L1143.43 74.7743L1143.78 74.7284L1144.09 74.5915L1143.1 72.2933ZM1278 16.1017L1459.23 74.6752L1460.77 69.9115L1279.54 11.338L1278 16.1017ZM305.06 113.793L492.796 74.744L491.776 69.8427L304.04 108.892L305.06 113.793ZM492.812 74.7405L658.02 39.1959L656.967 34.3016L491.759 69.8462L492.812 74.7405ZM13.7655 16.1874L148.935 39.2163L149.776 34.2812L14.6063 11.2523L13.7655 16.1874ZM148.271 39.0048L303.466 113.598L305.635 109.086L150.44 34.4927L148.271 39.0048ZM656.956 39.1935L818.659 74.7381L819.733 69.8486L658.031 34.304L656.956 39.1935ZM818.923 74.7816L997.147 94.3061L997.692 89.3296L819.469 69.8051L818.923 74.7816ZM997.752 94.2988L1143.43 74.7743L1142.77 69.8124L997.087 89.3369L997.752 94.2988ZM1144.09 74.5915L1279.76 16.018L1277.78 11.4217L1142.11 69.9952L1144.09 74.5915Z" fill="white"/>
</svg>
