<svg width="1474" height="115" viewBox="0 0 1474 115" fill="none" xmlns="http://www.w3.org/2000/svg">
<path d="M0.649918 14C0.649918 21.373 6.62695 27.3501 14 27.3501C21.373 27.3501 27.3501 21.373 27.3501 14C27.3501 6.62695 21.373 0.649918 14 0.649918C6.62695 0.649918 0.649918 6.62695 0.649918 14ZM1446.46 72.5735C1446.46 79.9465 1452.44 85.9236 1459.81 85.9236C1467.19 85.9236 1473.16 79.9465 1473.16 72.5735C1473.16 65.2005 1467.19 59.2234 1459.81 59.2234C1452.44 59.2234 1446.46 65.2005 1446.46 72.5735ZM304.364 111.622L303.28 113.879L304.044 114.246L304.874 114.073L304.364 111.622ZM657.307 37.0289L657.845 34.5841L657.313 34.4672L656.781 34.5818L657.307 37.0289ZM997.234 92.098L996.961 94.5863L997.264 94.6194L997.566 94.579L997.234 92.098ZM1278.59 14L1279.36 11.6182L1278.46 11.3283L1277.59 11.7019L1278.59 14ZM492.1 72.5735L492.61 75.0242L492.618 75.0224L492.626 75.0206L492.1 72.5735ZM149.17 37.0289L150.254 34.7728L149.937 34.6204L149.59 34.5613L149.17 37.0289ZM819.01 72.5735L818.473 75.0183L818.604 75.0471L818.737 75.0617L819.01 72.5735ZM1142.92 72.5735L1143.25 75.0545L1143.59 75.0086L1143.91 74.8716L1142.92 72.5735ZM1277.82 16.3818L1459.04 74.9553L1460.58 70.1917L1279.36 11.6182L1277.82 16.3818ZM304.874 114.073L492.61 75.0242L491.59 70.1228L303.855 109.172L304.874 114.073ZM492.626 75.0206L657.834 39.476L656.781 34.5818L491.573 70.1264L492.626 75.0206ZM13.5796 16.4676L148.749 39.4965L149.59 34.5613L14.4204 11.5324L13.5796 16.4676ZM148.085 39.285L303.28 113.879L305.449 109.366L150.254 34.7728L148.085 39.285ZM656.77 39.4737L818.473 75.0183L819.547 70.1287L657.845 34.5841L656.77 39.4737ZM818.737 75.0617L996.961 94.5863L997.506 89.6097L819.283 70.0852L818.737 75.0617ZM997.566 94.579L1143.25 75.0545L1142.58 70.0925L996.901 89.617L997.566 94.579ZM1143.91 74.8716L1279.58 16.2981L1277.59 11.7019L1141.92 70.2754L1143.91 74.8716Z" fill="white"/>
</svg>
